<?xml version="1.0" encoding="UTF-8"?>
<svg width="141px" height="141px" viewBox="0 0 141 141" version="1.1" xmlns="http://www.w3.org/2000/svg" xmlns:xlink="http://www.w3.org/1999/xlink">
    <title>Group</title>
    <g id="Page-1" stroke="none" stroke-width="1" fill="none" fill-rule="evenodd">
        <g id="Huisstijl-ASVZ-(1)" transform="translate(0.000000, -561.000000)">
            <g id="Group" transform="translate(0.000000, 561.261000)">
                <polygon id="Fill-2" fill="#AFCA0B" points="0 140.314 140.314 140.314 140.314 0 0 0"></polygon>
                <polygon id="Fill-3" fill="#E6007A" points="125.2329 122.6662 125.2329 132.5192 79.6149 132.5192 79.6149 123.5772 111.5719 83.9752 82.3479 83.9752 82.3479 74.1242 125.2329 74.1242 125.2329 83.4782 94.5179 122.6662"></polygon>
                <path d="M51.084,54.7643 L27.583,54.7643 L23.946,66.1873 L11.442,66.1873 L32.549,7.7943 L45.852,7.7943 L67.223,66.1873 L54.72,66.1873 L51.084,54.7643 Z M47.98,45.2423 L39.377,18.3383 L30.687,45.2423 L47.98,45.2423 Z" id="Fill-4" fill="#E6007A"></path>
                <polygon id="Fill-5" fill="#FFFFFF" points="23.9463 74.1247 11.4423 74.1247 32.5493 132.5187 45.8523 132.5187 67.2233 74.1247 54.7203 74.1247 39.3773 121.9747"></polygon>
                <path d="M86.085,48.8268 C87.492,50.9808 91.995,57.6868 104.328,57.6868 C109.13,57.6868 115.475,55.9728 115.475,49.9848 C115.475,44.6498 110.492,43.7598 104.298,42.3698 L94.551,40.1828 C86.424,38.3588 80.042,33.8878 80.042,24.4918 C80.042,13.3968 89.396,6.2778 103.14,6.2778 C115.725,6.2778 122.509,12.4868 126.65,18.1168 L117.71,24.8198 C115.725,21.9258 111.913,16.1308 102.561,16.1308 C96.682,16.1308 91.549,18.7778 91.549,23.2468 C91.549,26.9728 94.381,28.5618 99.848,29.7208 L108.354,31.5248 C116.196,33.1878 127.314,36.4108 127.314,48.9128 C127.314,62.3218 114.894,67.7038 102.478,67.7038 C95.537,67.7038 83.921,66.2248 76.896,55.2848 L86.085,48.8268 Z" id="Fill-6" fill="#FFFFFF"></path>
            </g>
        </g>
    </g>
</svg>
